<?xml version="1.0" encoding="UTF-8"?>
<svg id="Layer_2" data-name="Layer 2" xmlns="http://www.w3.org/2000/svg" viewBox="0 0 19.99 20">
  <defs>
    <style>
      .cls-1 {
        fill: #231f20;
      }
    </style>
  </defs>
  <g id="Layer_1-2" data-name="Layer 1">
    <path class="cls-1" d="M15.44,20c-.75,0-1.5,0-2.25,0-1.4,0-2.28-.88-2.28-2.28,0-1.48,0-2.96,0-4.43,0-.51-.38-.93-.85-1-.54-.07-1.01,.22-1.15,.74-.05,.19-.06,.39-.06,.58,0,1.49,0,2.98-.02,4.47-.02,.97-.87,1.88-1.85,1.9-1.7,.04-3.41,.04-5.12,0-1-.02-1.82-.94-1.84-1.99-.03-1.67-.03-3.35,0-5.02,.02-1.2,.95-2.04,2.21-2.04,1.5,0,3,0,4.5,0,.45,0,.84-.32,.96-.74,.12-.44-.06-.95-.47-1.15-.23-.11-.52-.17-.78-.17-1.47-.02-2.93,0-4.4-.02C.9,8.82,.04,7.96,.02,6.82c-.03-1.6-.03-3.19,0-4.79C.04,.91,.89,.05,2.01,.03,3.67,0,5.34,0,7,.02c1.24,.02,2.07,.93,2.08,2.21,0,1.5,0,3,0,4.5,0,.48,.35,.89,.79,.99,.48,.1,.93-.11,1.13-.56,.09-.22,.14-.48,.14-.72,.01-1.41,.01-2.83,0-4.24,0-.89,.37-1.56,1.16-1.95,.31-.15,.69-.22,1.03-.22,1.47-.02,2.93-.02,4.4,0,1.38,0,2.23,.87,2.23,2.25,0,1.52,0,3.04,0,4.56,0,1.38-.88,2.26-2.26,2.26-1.47,0-2.93,0-4.4,0-.46,0-.79,.21-.97,.63-.17,.38-.07,.82,.24,1.14,.26,.26,.59,.3,.93,.3,1.48,0,2.96-.01,4.43,.01,1.14,.02,2,.87,2.02,2.01,.03,1.6,.03,3.19,0,4.79-.02,1.12-.87,1.98-1.99,2.01-.85,.03-1.69,0-2.54,0,0,0,0,0,0,0Z"/>
  </g>
</svg>