<?xml version="1.0" encoding="UTF-8"?>
<svg id="Layer_2" data-name="Layer 2" xmlns="http://www.w3.org/2000/svg" viewBox="0 0 19.25 18">
  <g id="Layer_1-2" data-name="Layer 1">
    <g>
      <path d="M4.35,.01c.73-.04,1.38,.22,2.03,.5,.53,.23,1.06,.45,1.62,.61,1.34,.38,2.67,.28,3.96-.22,.47-.18,.93-.4,1.4-.58,1.38-.53,2.7-.4,3.93,.41,1.29,.84,1.93,2.08,1.97,3.61,.03,1.25-.41,2.32-1.29,3.2-.32,.32-.7,.57-1.06,.84-.75,.56-1.42,1.19-1.91,1.99-.48,.77-.78,1.61-.92,2.51-.09,.58-.13,1.18-.25,1.76-.26,1.21-.94,2.14-2,2.77-1.95,1.16-4.46,.64-5.76-1.34-.44-.68-.65-1.42-.72-2.21-.08-.9-.24-1.79-.6-2.63-.44-1.03-1.12-1.86-1.99-2.55-.4-.32-.82-.6-1.21-.93C.58,6.93,.09,5.9,0,4.67-.06,3.63,.21,2.66,.83,1.82,1.56,.81,2.55,.21,3.8,.05c.18-.02,.37-.03,.55-.04Zm.89,.72c-1.36,.01-2.35,.42-3.14,1.28-1.19,1.32-1.44,3-.69,4.58,.33,.69,.86,1.19,1.46,1.65,1.61,1.2,2.52,2.81,2.77,4.8,.06,.45,.11,.9,.29,1.32,.67,1.53,1.81,2.43,3.5,2.5,1.56,.07,2.75-.59,3.59-1.9,.38-.6,.51-1.27,.6-1.96,.21-1.65,.9-3.07,2.12-4.21,.34-.32,.72-.59,1.08-.88,1.28-1.05,1.87-2.98,1.08-4.75-.9-2.02-3.16-2.96-5.19-2.1-.68,.29-1.37,.54-2.1,.65-1.28,.19-2.5,.01-3.68-.49-.61-.26-1.21-.49-1.68-.47Z"/>
      <path d="M9.64,16.25c-1.68,0-3.01-1.26-3.25-2.62-.12-.67-.24-1.35-.43-2-.4-1.35-1.12-2.5-2.2-3.43-.38-.33-.76-.66-1.13-1-.56-.51-.86-1.17-.96-1.91-.15-1.06,.14-2,.85-2.8,.83-.93,2.26-1.44,3.69-.88,.56,.22,1.13,.41,1.71,.56,.81,.21,1.63,.25,2.47,.17,.77-.07,1.48-.32,2.2-.57,.4-.14,.81-.31,1.22-.36,1.35-.16,2.43,.34,3.21,1.45,.88,1.26,.8,2.99-.18,4.11-.25,.29-.56,.53-.85,.79-.36,.33-.75,.65-1.08,1.01-.9,.99-1.5,2.15-1.76,3.47-.09,.46-.2,.91-.28,1.37-.24,1.4-1.58,2.64-3.23,2.64Zm7.03-11.12c-.08-1.23-.63-2.26-1.89-2.81-.62-.27-1.26-.4-1.93-.22-.45,.12-.89,.27-1.34,.4-1,.28-2.02,.33-3.04,.15-.6-.11-1.19-.29-1.77-.47-1.06-.32-2.04-.14-2.89,.54-1.59,1.26-1.6,3.72-.09,4.97,.71,.58,1.32,1.27,1.79,2.07,.5,.84,.82,1.75,1,2.7,.13,.64,.36,1.21,.8,1.7,1.42,1.57,3.96,1.39,5.09-.69,.2-.36,.27-.76,.35-1.15,.24-1.16,.69-2.22,1.39-3.17,.4-.55,.89-1.03,1.4-1.47,.75-.65,1.08-1.47,1.12-2.53Z"/>
      <path d="M15.99,5.26c0,.79-.32,1.43-.9,1.96-.58,.52-1.12,1.09-1.58,1.72-.57,.78-.93,1.65-1.19,2.57-.12,.41-.2,.83-.32,1.24-.29,.94-1.17,1.66-2.09,1.75-1.22,.11-2.34-.66-2.68-1.85-.18-.63-.33-1.28-.54-1.9-.38-1.17-1.09-2.13-1.96-2.99-.24-.24-.51-.47-.74-.72-.68-.72-.9-1.57-.62-2.51,.3-1.01,1.01-1.61,2.04-1.81,.47-.09,.91,0,1.36,.15,.87,.28,1.76,.49,2.67,.52,.97,.03,1.91-.17,2.83-.45,.31-.09,.61-.19,.93-.23,1.2-.14,2.25,.53,2.65,1.68,.09,.28,.13,.57,.19,.86-.01,0-.02,0-.04,0Zm-6.3,8.12c.07,0,.21,0,.34-.03,.91-.18,1.5-.71,1.8-1.59,.12-.35,.23-.71,.35-1.06,.26-.76,.6-1.47,1.11-2.1,.37-.46,.77-.9,1.16-1.34,.44-.51,.62-1.09,.56-1.76-.12-1.29-1.32-2.5-2.94-2.08-.79,.21-1.6,.36-2.42,.36-.83,0-1.64-.17-2.44-.36-.82-.19-1.56-.06-2.19,.52-.81,.76-1.03,1.93-.51,2.85,.18,.32,.44,.59,.68,.86,.57,.65,1.15,1.29,1.5,2.1,.27,.63,.5,1.27,.71,1.92,.36,1.08,1.14,1.69,2.3,1.7Z"/>
      <path d="M9.63,12.73c-.7,0-1.27-.38-1.52-1.04-.17-.44-.3-.89-.46-1.33-.42-1.14-1.06-2.14-1.88-3.03-.18-.2-.36-.4-.53-.61-.48-.59-.44-1.32-.13-1.87,.37-.64,.99-.94,1.7-.83,.47,.08,.94,.19,1.41,.27,.68,.11,1.37,.14,2.06,.09,.65-.05,1.27-.19,1.9-.31,.25-.05,.52-.09,.78-.06,.68,.09,1.22,.61,1.38,1.28,.13,.53,.03,1.01-.31,1.43-.32,.39-.67,.75-.99,1.14-.76,.93-1.29,1.99-1.64,3.14-.07,.23-.15,.46-.24,.69-.26,.65-.83,1.04-1.52,1.04ZM7.5,4.53c-.6,0-1.05,.21-1.35,.57-.53,.66-.52,1.53,.06,2.21,.85,.98,1.48,2.08,1.9,3.31,.23,.67,.79,1.06,1.48,1.07,.73,0,1.27-.35,1.54-1.02,.15-.38,.3-.77,.46-1.14,.37-.82,.88-1.55,1.47-2.23,.33-.38,.46-.83,.4-1.34-.11-.86-.91-1.52-1.78-1.43-.29,.03-.57,.09-.86,.13-.8,.11-1.59,.11-2.39,0-.34-.05-.68-.1-.93-.14Z"/>
      <path d="M7.46,5.17c.45,.05,.88,.09,1.32,.16,.64,.09,1.27,.06,1.91-.02,.35-.05,.7-.09,1.05-.12,.4-.04,.72,.11,.94,.46,.21,.35,.24,.72,0,1.07-.2,.3-.41,.59-.64,.87-.58,.71-.96,1.52-1.3,2.36-.08,.19-.16,.38-.26,.57-.18,.35-.47,.53-.87,.53-.42,0-.71-.21-.89-.57-.17-.36-.33-.72-.47-1.09-.29-.75-.75-1.4-1.24-2.03-.14-.18-.28-.36-.41-.55-.42-.61-.15-1.41,.54-1.59,.1-.03,.2-.03,.3-.04Zm2.18,.58s0,0,0,0c-.41,0-.81,0-1.22,0-.14,0-.29,.04-.42,.1-.53,.25-.73,.93-.43,1.45,.39,.68,.78,1.36,1.18,2.04,.08,.14,.2,.28,.34,.37,.5,.34,1.15,.15,1.46-.4,.37-.65,.74-1.3,1.13-1.95,.21-.36,.24-.72,.03-1.09-.21-.37-.53-.53-.95-.52-.37,0-.75,0-1.12,0Z"/>
    </g>
  </g>
</svg>