<?xml version="1.0" encoding="UTF-8"?>
<svg id="Layer_2" data-name="Layer 2" xmlns="http://www.w3.org/2000/svg" viewBox="0 0 19.72 18">
  <g id="Layer_1-2" data-name="Layer 1">
    <g>
      <path d="M6.34,7.26c.4-.26,.8-.53,1.21-.78,.13-.08,.31-.07,.44-.15,1.77-1,3.44-.64,5.11,.3,.31,.18,.8,.04,1.2,.05-.21-.37-.37-.79-.66-1.09-.5-.54-1.16-.95-1.6-1.53-1.09-1.43-1.65-1.49-2.9-.17-.54,.57-1.11,1.11-1.64,1.69-.89,.98-1.95,1.34-3.23,.92-.18-.06-.36-.1-.55-.14-.96-.2-1.97-.76-2.78,.27-1.12,1.45-1.23,3.23-.47,4.5,.74,1.23,1.46,2.48,2.04,3.78,.92,2.08,2.65,3.18,4.92,3.02,.71-.05,1.44,.08,2.16,.04,1.46-.1,2.94-.16,4.37-.43,1.18-.23,1.54-1.55,.68-2.53-1.07-1.23-2.26-2.37-3.48-3.45-.38-.34-1.04-.35-1.57-.53-.82-.27-1.68-.49-2.45-.87-.58-.28-.66-.79,.05-1.08,1.88-.78,3.77-1.65,5.71-.09,.28,.23,.67,.39,1.02,.45,.25,.04,.54-.14,.82-.22-.09-.3-.09-.75-.29-.87-.74-.46-1.52-.88-2.33-1.2-.6-.24-1.27-.31-1.92-.45-.87-.18-1.66-.08-2.38,.55-.32,.28-.82,.35-1.24,.52-.08-.17-.17-.34-.25-.52Z"/>
      <path d="M6.61,0c-1.19-.02-1.96,.29-2.62,1.06-.56,.66-1.28,1.18-1.94,1.76-.14,.13-.34,.22-.42,.38-.18,.36-.33,.74-.48,1.12-.06,.14,.02,.29,.16,.33,.4,.11,.81,.24,1.21,.26,.61,.03,1.24-.06,1.85-.13,.3-.03,.59-.14,.89-.21,.44-.11,.9-.37,1.32-.32,1.5,.18,2.11-.74,2.18-1.75,.1-1.3-.77-2.35-2.02-2.48-.12-.01-.25-.03-.15-.02Z"/>
      <path d="M14.32,.61c-.6,.03-1.43,.09-1.73,.92-.31,.86,.12,1.58,.79,2.15,.53,.44,1.04,.9,1.57,1.35,.57,.49,1.14,.8,1.95,.44,.27-.12,.77,.07,1.08,.26,.55,.34,1.09,.69,1.56,.04,.47-.64-.13-1.02-.55-1.39-.42-.37-.91-.68-1.31-1.07-.24-.23-.42-.55-.54-.86-.5-1.35-1.19-1.85-2.83-1.85Z"/>
    </g>
  </g>
</svg>