<?xml version="1.0" encoding="UTF-8"?>
<svg id="Layer_2" data-name="Layer 2" xmlns="http://www.w3.org/2000/svg" viewBox="0 0 27.67 18">
  <g id="Layer_1-2" data-name="Layer 1">
    <g>
      <path d="M.7,6.4C.28,6.4-.04,6.03,0,5.61,.23,3.2,1.98,1.05,4.35,.35c2.69-.8,5.13-.15,7.51,1.4,.04-.58,.06-1.03,.1-1.69,1.08,.47,2.04,.89,3.04,1.32,.04-.28,.09-.66,.15-1.1,1.64,.07,3.29-.27,4.74,.93,.03-.32,.06-.55,.09-.85h1.41c.39,0,.7,.31,.7,.7V11.39c0,.39-.31,.7-.7,.7h-1.45v-1.93c-.12,.06-.19,.08-.2,.11-.6,1.61-1.74,2.2-3.38,1.9-.39-.07-.79-.01-1.3-.01v-2.05c0-.53-.56-.86-1.03-.61-1.06,.56-2.04,1.1-2.27,2.52v-1.98c0-.49-.51-.84-.96-.65-1.22,.5-1.83,1.15-2.04,2.17-.06,.31-.35,.53-.67,.53h-3.42c-.38,0-.69-.3-.7-.68-.01-.5-.03-1,.03-1.5,.09-.88,.53-1.59,1.33-2.01,.64-.34,1.27-.69,1.91-1.02,.55-.28,.94-.68,.83-1.33-.11-.68-.58-1.12-1.26-1.19-.65-.07-1.14,.28-1.4,.88-.15,.34-.18,.73-.28,1.17H.7Z"/>
      <rect x="23.03" y=".39" width="4.63" height="11.7" rx=".7" ry=".7"/>
      <rect x="23.05" y="13.36" width="4.62" height="4.62" rx=".7" ry=".7"/>
      <rect x="4.02" y="13.38" width="4.49" height="4.62" rx=".7" ry=".7"/>
      <rect x="13.58" y="13.34" width="4.04" height="4.64" rx=".7" ry=".7"/>
      <rect x="8.94" y="13.38" width="3.91" height="4.58" rx=".7" ry=".7"/>
      <path d="M21.25,17.99h-2.18c-.46,0-.84-.31-.84-.7v-3.23c0-.39,.38-.7,.84-.7h2.18c.46,0,.84,.31,.84,.7v3.23c0,.39-.38,.7-.84,.7Z"/>
    </g>
  </g>
</svg>