<?xml version="1.0" encoding="UTF-8"?>
<svg id="Layer_2" data-name="Layer 2" xmlns="http://www.w3.org/2000/svg" viewBox="0 0 16.33 18">
  <g id="Layer_1-2" data-name="Layer 1">
    <g>
      <path d="M2.35,4.07s0-.07,.02-.09c.21-.48,.53-.88,.9-1.24,.22-.22,.45-.44,.7-.63,.27-.2,.56-.37,.84-.55,.12-.07,.24-.14,.37-.19,.2-.08,.4-.15,.6-.23,.12-.05,.68-.2,.84-.24,.06-.01,.63-.07,.65-.08,.35-.06,.71-.04,1.07-.06,.11,0,.52,.02,.56,.03,.09,.01,.18,.04,.28,.04,.14,0,1.02,.19,1.07,.21,.03,0,.93,.34,.98,.36,.31,.18,.63,.35,.94,.55,.19,.13,.35,.3,.53,.44,.3,.22,.52,.51,.77,.79,.12,.13,.2,.29,.3,.44,.04,.06,.08,.12,.12,.18,.01,0,.03-.1,0-.13-.24-.43-.52-.82-.89-1.15-.1-.09-.57-.53-.71-.64-.18-.13-.37-.27-.56-.38-.19-.11-.38-.21-.58-.3-.24-.11-.48-.2-.72-.29-.13-.05-.59-.2-.69-.22-.2-.04-1.1-.14-1.34-.16-.16,0-.31,0-.47,.01-.25,.02-.51,.03-.76,.06-.16,.02-.32,.04-.48,.08-.19,.04-.39,.08-.58,.14-.15,.04-.29,.11-.44,.16-.15,.05-.3,.09-.44,.16-.17,.08-.33,.17-.49,.26-.1,.06-.21,.1-.31,.17-.24,.18-.48,.37-.71,.56-.18,.15-.35,.29-.51,.46-.21,.23-.43,.45-.58,.73-.07,.14-.19,.26-.26,.41-.1,.21-.2,.42-.24,.66-.03,.17-.13,.33-.2,.5-.05,.12-.12,.24-.17,.36-.06,.14-.12,.27-.17,.42-.09,.24-.17,.49-.25,.73-.09,.28-.16,.57-.2,.86-.03,.24-.08,.47-.12,.71-.02,.11-.05,.12-.16,.11-.21-.01-.42-.02-.62-.02-.13,0-.21-.04-.2-.17,.01-.21,.05-.42,.07-.63,0-.03,.01-.06,.02-.1,.06-.28,.11-.56,.18-.84,.04-.18,.09-.37,.15-.54,.08-.23,.17-.46,.26-.69,.08-.2,.17-.39,.26-.59,.12-.25,.26-.49,.46-.69,.15-.15,.27-.34,.4-.5,.25-.3,.49-.61,.74-.91,.24-.28,.52-.51,.81-.75,.36-.29,.74-.53,1.14-.75,.21-.12,.43-.23,.66-.32,.35-.13,.71-.24,1.07-.35,.26-.08,.53-.1,.8-.15C7.61-.01,8.11,0,8.62,0c.23,0,.46,.05,.69,.08,.21,.03,.42,.06,.62,.11,.18,.04,.36,.1,.53,.16,.21,.07,.41,.14,.62,.22,.06,.02,.11,.05,.17,.08,.27,.14,.55,.26,.81,.42,.23,.13,.43,.31,.65,.45,.31,.19,.56,.44,.81,.69,.3,.31,.57,.65,.85,.98,.12,.14,.21,.31,.32,.45,.1,.13,.24,.24,.33,.38,.13,.18,.24,.37,.34,.57,.14,.31,.27,.63,.39,.95,.07,.19,.12,.38,.18,.58,.05,.18,.11,.36,.15,.55,.07,.34,.12,.68,.17,1.02,0,.05,.01,.11,.01,.17,0,.12-.04,.18-.16,.18-.24,0-.48,.01-.72,.02-.09,0-.12-.04-.13-.12-.04-.28-.06-.57-.12-.85-.07-.33-.15-.67-.25-1-.07-.23-.17-.46-.27-.68-.13-.29-.26-.58-.39-.86-.02-.05-.03-.1-.04-.15-.04-.14-.08-.27-.12-.41,0,0-.02,0-.02-.01,0,0-.02,0-.02,.01-.01,.04-.02,.08-.03,.12-.05-.02-.1-.03-.14-.06-.36-.28-.7-.57-1.06-.83-.29-.2-.61-.36-.92-.52-.26-.13-.53-.25-.8-.36-.17-.07-.36-.12-.54-.18-.14-.04-.29-.06-.44-.11-.39-.13-.8-.17-1.2-.21-.26-.03-.52,0-.78-.02-.46-.02-.91,.04-1.35,.11-.26,.04-.53,.09-.78,.17-.26,.08-.5,.18-.75,.28-.2,.08-.41,.15-.6,.24-.22,.1-.45,.21-.66,.34-.33,.2-.65,.42-.97,.64-.18,.13-.34,.27-.51,.41-.03,.03-.07,.04-.1,.07-.01,0-.02,0-.03-.01Z"/>
      <path d="M5.71,16.68c.07,.1,.06,.19,.04,.29-.04,.16-.06,.32-.1,.48-.03,.09-.09,.17-.15,.25-.05,.07-.12,.12-.18,.18-.05,.04-.1,.06-.16,.08-.06,.02-.12,.02-.18,.03-.19,.04-.36-.01-.52-.1-.32-.17-.54-.45-.74-.74-.24-.33-.48-.66-.7-1-.27-.42-.52-.85-.77-1.28-.16-.28-.33-.57-.48-.85-.19-.36-.37-.72-.56-1.08-.15-.31-.3-.61-.45-.92-.1-.22-.18-.44-.27-.67-.06-.17-.13-.33-.18-.51-.08-.27-.12-.55-.03-.83,.07-.23,.22-.41,.47-.49,.07-.02,.13-.05,.2-.07,.15-.04,.29-.01,.43,.07,.12,.07,.26,.12,.4,.16,.09,.03,3.84,6.86,3.95,7.01Z"/>
      <path d="M14.61,9.62c.14-.05,.28-.11,.42-.17,.03-.01,.07-.03,.1-.04q.13-.06,.19,.07c.08,.16,.38,.3,.54,.26,.09-.02,.13,0,.14,.09,.04,.22,.12,.44,.07,.67-.04,.18-.08,.37-.14,.55-.13,.34-.26,.68-.41,1.02-.15,.33-.31,.64-.47,.97-.09,.18-.17,.36-.26,.53-.06,.12-.13,.23-.2,.35-.07,.13-.14,.26-.21,.38-.14,.25-.28,.51-.43,.76-.17,.29-.33,.58-.51,.86-.15,.25-.32,.49-.48,.73-.19,.27-.38,.53-.58,.79-.19,.24-.42,.44-.73,.54-.15,.05-.3,.04-.45-.02-.24-.09-.45-.22-.55-.48-.03-.07-.03-.14-.05-.21-.03-.11-.04-.23-.08-.34-.03-.08-.03-.15,.03-.21,.06-.07,3.91-7.05,4.04-7.09Zm.4-.02s0,.05,0,.05c.01,.03,.02,.06,.04,.08,.1,.15,.24,.25,.41,.31,.04,.01,.09,.03,.12,.05,.1,.06,.22,.06,.3-.01-.04,0-.08-.02-.11-.02-.04,0-.07,0-.11-.01-.2-.09-.39-.21-.54-.37-.03-.03-.07-.04-.11-.07Z"/>
      <path d="M8.99,16.06c0-.21,.08-.38,.18-.55,.19-.34,.38-.68,.57-1.02,.15-.26,.29-.52,.44-.78,.22-.4,.45-.8,.67-1.2,.18-.32,.35-.65,.52-.97,.19-.35,.39-.69,.58-1.03,.15-.27,.3-.54,.45-.81,.1-.19,.19-.38,.29-.56,.29-.52,.92-.65,1.4-.3,.14,.1,.23,.22,.29,.38,.06,.16,0,.29-.1,.42-.02,.02-3.84,7.08-3.98,7.23-.16,.17-.37,.15-.57,.09-.32-.09-.55-.29-.67-.6-.04-.09-.05-.19-.07-.29Z"/>
      <path d="M7.28,16.06c.01,.38-.19,.64-.5,.81-.23,.12-.47,.18-.72,.04-.13-.07-4.05-7.32-4.11-7.4-.09-.15-.04-.29,.03-.42,.21-.37,.79-.54,1.12-.4,.27,.12,.44,.31,.57,.55,.09,.17,.18,.34,.27,.51,.17,.31,.33,.62,.5,.92,.23,.41,.46,.82,.68,1.23,.26,.48,.52,.96,.79,1.44,.24,.44,.49,.87,.73,1.31,.14,.26,.28,.52,.43,.78,.11,.18,.19,.36,.21,.57,0,.03,0,.05,0,.08Z"/>
      <path d="M.23,8.12c.17,0,.33,0,.5,0,.08,0,.16,.03,.23,.06,.08,.03,.09,.09,.08,.17-.01,.07-.07,.1-.13,.09-.1,0-.1,.06-.1,.13,0,.21,0,.42,0,.64,0,.1-.03,.17-.13,.2-.03,0-.05,.03-.07,.05-.15,.11-.29,.06-.33-.12-.03-.12-.02-.25-.03-.37,0-.14,0-.28,0-.42,0-.08-.03-.13-.11-.15-.13-.04-.15-.08-.13-.21,.02-.11,.11-.09,.19-.09,0,0,.02,0,.03,0,0,0,0,.01,0,.02Z"/>
      <path d="M15.52,8.88c0-.09,0-.19,0-.28,0-.09-.04-.14-.13-.15-.09-.02-.13-.08-.11-.18,.01-.07,.05-.13,.14-.13,.25,0,.49-.02,.74-.04,.08,0,.14,.02,.16,.11,.02,.1-.01,.17-.11,.18-.1,.02-.13,.08-.13,.17,0,.21,0,.42-.01,.63,0,.08-.04,.16-.07,.24-.03,.07-.09,.08-.16,.03-.07-.04-.13-.08-.21-.11-.08-.03-.12-.09-.12-.17,0-.1,0-.2,0-.3h0Z"/>
      <path d="M15.01,9.6s.09,.04,.11,.07c.15,.17,.34,.28,.54,.37,.03,.01,.07,0,.11,.01,.03,0,.07,.01,.11,.02-.08,.07-.2,.07-.3,.01-.04-.02-.08-.04-.12-.05-.17-.06-.31-.16-.41-.31-.02-.02-.03-.05-.04-.08,0,0,0-.02,0-.05Z"/>
    </g>
  </g>
</svg>